<svg id="レイヤー_2" data-name="レイヤー 2" xmlns="http://www.w3.org/2000/svg" width="64" height="64" viewBox="0 0 64 64">
  <g id="レイヤー_1" data-name="レイヤー 1" transform="translate(0 0)">
    <circle id="楕円形_43" data-name="楕円形 43" cx="32" cy="32" r="32" fill="#d32f2f"/>
    <path id="パス_311" data-name="パス 311" d="M64.782,38.315c0,4.061-3.879,6.316-5.548,7.128-5.322,2.525-5.907,2.84-6.853,3.608a6.651,6.651,0,0,0-2.21,4.15c-.226.812-.492,1.531-1.172,1.531s-.724-.719-.724-.985a13.784,13.784,0,0,1,1.309-4.923,11.239,11.239,0,0,1,3.249-3.879c4.145-3.2,4.6-3.564,5.366-5.415a4.992,4.992,0,0,0,.359-1.807c0-1.89-1.4-5.1-7.758-5.1-4.283,0-8.251,1.969-8.251,5.144,0,2.255,1.9,2.614,2.885,2.747A5.114,5.114,0,0,1,41,43.543a4.081,4.081,0,0,1-4.145-4.15c0-.674.448-9.353,14.833-9.353C58.289,30.02,64.782,32.723,64.782,38.315ZM53.1,60.542A4.13,4.13,0,1,1,51.9,57.6,4.13,4.13,0,0,1,53.1,60.542Z" transform="translate(-18.714 -15.252)" fill="#fff"/>
  </g>
</svg>
